<?xml version="1.0" standalone="no"?>
<!DOCTYPE svg PUBLIC "-//W3C//DTD SVG 20010904//EN"
 "http://www.w3.org/TR/2001/REC-SVG-20010904/DTD/svg10.dtd">
<svg version="1.0" xmlns="http://www.w3.org/2000/svg"
 width="2000.000000pt" height="2000.000000pt" viewBox="0 0 2000.000000 2000.000000"
 preserveAspectRatio="xMidYMid meet">
<metadata>
Created by potrace 1.14, written by Peter Selinger 2001-2017
</metadata>
<g transform="translate(0.000000,2000.000000) scale(0.100000,-0.100000)"
fill="#000000" stroke="none">
<path d="M0 10000 l0 -10000 10000 0 10000 0 0 10000 0 10000 -10000 0 -10000
0 0 -10000z m10486 3654 l-950 -945 124 -124 c69 -69 128 -125 132 -125 5 0
479 468 1055 1040 l1048 1039 490 0 490 0 -176 -172 c-370 -360 -2419 -2390
-2419 -2396 0 -3 586 -592 1302 -1308 l1303 -1303 -495 0 -495 0 -1060 1060
-1060 1060 -137 -137 -138 -138 952 -952 953 -953 -462 0 -461 0 -721 727
-721 727 0 475 0 476 127 127 128 128 -128 128 -127 127 1 495 0 495 716 698
716 697 481 -1 481 0 -949 -945z m-2046 751 l0 -135 -954 0 c-927 0 -956 -1
-1019 -20 -79 -24 -172 -85 -227 -147 -55 -62 -107 -174 -120 -253 -14 -89
-14 -3711 0 -3800 13 -79 65 -191 120 -253 55 -62 148 -123 227 -147 63 -19
92 -20 1019 -20 l954 0 0 -135 0 -135 -982 2 c-1101 4 -1021 -2 -1183 78 -200
99 -343 276 -408 505 l-22 80 0 1925 0 1925 23 80 c70 250 227 432 454 527
135 57 112 56 1156 57 l962 1 0 -135z m5208 119 c47 -9 118 -35 182 -66 93
-45 115 -61 200 -147 82 -82 103 -110 143 -191 90 -185 82 28 82 -2170 0
-1854 -1 -1948 -18 -2009 -76 -268 -267 -466 -532 -552 -63 -20 -94 -23 -310
-26 l-240 -4 -135 135 -135 136 341 0 c374 0 393 2 507 63 113 60 218 203 246
335 8 38 11 598 11 1930 0 2041 3 1919 -56 2039 -37 76 -130 173 -205 213
-107 57 -131 60 -501 60 -198 0 -338 4 -338 9 0 5 60 66 133 135 l132 126 208
0 c149 0 230 -4 285 -16z m-6934 -588 c43 -18 84 -71 91 -121 5 -31 1 -51 -17
-84 -29 -57 -64 -82 -120 -88 -166 -19 -236 210 -88 288 41 23 88 24 134 5z
m6824 -13 c87 -65 86 -192 -1 -257 -41 -31 -130 -29 -175 2 -97 70 -81 225 28
271 37 16 117 7 148 -16z m-5638 -689 c333 -58 655 -268 844 -552 163 -245
235 -497 222 -782 -11 -252 -80 -467 -218 -675 -68 -104 -251 -287 -353 -354
-148 -97 -323 -169 -490 -202 -106 -21 -388 -19 -495 4 -263 57 -476 172 -665
362 -254 254 -379 560 -378 920 0 274 71 503 226 735 64 96 241 273 337 337
294 197 622 267 970 207z m4770 0 c427 -74 803 -379 972 -789 66 -163 91 -292
92 -480 1 -236 -36 -399 -134 -595 -176 -350 -479 -590 -868 -688 -97 -24
-124 -26 -297 -26 -173 0 -199 2 -298 27 -503 126 -870 505 -979 1010 -28 132
-30 379 -4 502 44 207 125 389 243 545 62 82 207 220 293 279 298 204 626 276
980 215z m-5951 -2999 c76 -39 106 -122 73 -198 -38 -85 -129 -118 -211 -75
-139 73 -89 288 67 288 24 0 56 -7 71 -15z m6811 -8 c70 -46 94 -139 54 -208
-21 -37 -92 -79 -134 -79 -14 0 -46 10 -70 23 -141 71 -89 287 70 287 32 0 58
-7 80 -23z m-9870 -2373 l0 -306 148 4 c166 5 200 15 250 72 45 51 60 84 147
316 42 113 79 208 83 212 7 6 323 -110 337 -124 4 -3 -37 -124 -91 -268 l-98
-262 47 -41 c61 -51 103 -112 128 -184 17 -52 19 -86 19 -425 l0 -368 -185 0
-185 0 0 340 c0 325 -1 340 -19 350 -12 6 -126 10 -300 10 l-281 0 0 -350 0
-350 -185 0 -185 0 0 840 0 840 185 0 185 0 0 -306z m2398 296 c117 -27 231
-119 285 -229 l32 -66 3 -687 3 -688 -186 0 -185 0 0 225 0 225 -370 0 -370 0
0 -225 0 -225 -185 0 -185 0 0 650 c0 686 2 714 47 804 50 99 165 190 269 215
54 12 788 13 842 1z m2022 -175 l0 -185 -534 0 c-473 0 -536 -2 -550 -16 -20
-20 -23 -233 -4 -252 9 -9 99 -12 343 -12 181 0 358 -4 392 -9 161 -24 293
-139 338 -294 13 -46 16 -93 13 -240 -3 -180 -3 -183 -34 -248 -41 -85 -118
-162 -203 -203 l-66 -31 -582 -3 -583 -3 0 186 0 185 538 0 c405 0 541 3 550
12 8 8 12 51 12 128 0 77 -4 120 -12 128 -9 9 -100 12 -347 12 -185 0 -362 4
-394 10 -134 22 -243 103 -304 228 l-38 76 0 200 c0 187 2 205 23 258 27 67
101 152 170 197 92 59 103 60 715 60 l557 1 0 -185z m1728 -2 l2 -183 -539 0
c-448 0 -540 -2 -550 -14 -8 -9 -11 -55 -9 -137 l3 -124 380 -5 c311 -5 388
-9 422 -21 154 -59 261 -187 284 -342 12 -84 11 -238 -2 -317 -19 -121 -86
-224 -186 -288 -98 -62 -100 -62 -720 -62 l-563 0 0 185 0 185 539 0 c448 0
540 2 550 14 8 9 11 55 9 137 l-3 124 -380 6 c-426 6 -438 7 -537 79 -65 46
-122 119 -150 193 -25 64 -37 317 -19 411 30 161 145 288 301 332 34 9 182 12
605 11 l560 -2 3 -182z m1732 2 l0 -185 -545 -2 c-472 -3 -547 -5 -555 -18 -5
-8 -10 -72 -10 -142 l0 -128 555 0 555 0 -2 -182 -3 -183 -552 -3 -553 -2 0
-128 c0 -86 4 -132 12 -140 9 -9 146 -12 555 -12 l543 0 0 -185 0 -186 -587 3
-588 3 -57 27 c-80 37 -124 73 -174 140 -75 102 -76 111 -72 693 l3 510 31 65
c33 71 102 146 168 185 89 52 107 54 714 54 l562 1 0 -185z m1728 -2 l2 -183
-258 0 c-217 0 -261 -2 -280 -16 l-22 -15 0 -640 0 -639 -185 0 -185 0 0 638
c0 383 -4 643 -10 652 -8 13 -52 15 -275 18 l-265 3 0 185 0 184 738 -2 737
-3 3 -182z m1722 2 l0 -185 -256 0 c-157 0 -263 -4 -275 -10 -18 -10 -19 -28
-19 -655 l0 -645 -190 0 -190 0 0 645 c0 627 -1 645 -19 655 -12 6 -118 10
-275 10 l-256 0 0 185 0 185 740 0 740 0 0 -185z m1720 0 l0 -185 -535 0
c-524 0 -535 0 -555 -20 -19 -19 -20 -31 -18 -143 l3 -122 553 -3 552 -2 0
-185 0 -185 -556 0 -556 0 4 -130 c2 -103 6 -133 18 -140 9 -6 232 -10 553
-10 l537 0 0 -185 0 -186 -588 3 -587 3 -67 33 c-85 42 -177 137 -210 219 -23
58 -23 60 -26 552 -3 515 -1 551 40 638 27 58 128 162 183 188 90 42 107 44
693 44 l562 1 0 -185z m-11601 -2245 c52 -116 95 -209 96 -208 1 2 44 97 95
211 l93 208 46 -3 46 -3 0 -265 0 -265 -42 -3 -43 -3 -2 182 -3 182 -80 -181
c-79 -179 -81 -182 -111 -182 -30 0 -32 3 -110 178 l-79 177 -3 -177 -2 -178
-45 0 -45 0 0 270 0 270 48 0 48 0 93 -210z m878 174 c125 -77 165 -249 88
-380 -89 -151 -322 -169 -438 -34 -117 137 -74 350 87 427 44 21 62 24 133 20
69 -3 89 -8 130 -33z m340 -174 c40 -113 75 -212 79 -220 3 -8 34 63 70 165
105 296 89 265 141 265 41 0 44 -1 37 -22 -4 -13 -48 -133 -99 -268 l-92 -245
-50 -3 c-41 -2 -52 0 -58 15 -18 46 -195 516 -195 520 0 2 21 3 47 1 l47 -3
73 -205z m493 -61 l0 -270 -42 3 -43 3 -3 255 c-1 140 0 260 3 267 2 8 21 13
45 13 l40 0 0 -271z m410 231 l0 -40 -100 0 -100 0 0 -75 0 -75 90 0 90 0 0
-35 0 -35 -90 0 -90 0 0 -85 0 -85 100 0 100 0 0 -35 0 -35 -145 0 -145 0 0
270 0 270 145 0 145 0 0 -40z m580 21 c38 -20 80 -73 80 -102 0 -16 -8 -19
-42 -19 -35 0 -46 5 -69 33 -23 27 -33 32 -72 32 -54 0 -87 -25 -87 -67 0 -41
29 -64 112 -89 97 -28 125 -44 148 -82 40 -65 18 -149 -53 -201 -43 -32 -152
-35 -213 -6 -48 24 -84 69 -84 108 0 19 5 22 43 22 37 0 46 -4 55 -24 18 -40
56 -59 105 -53 48 7 77 35 77 77 0 39 -33 62 -134 94 -107 33 -146 71 -146
144 0 62 29 108 83 132 56 26 150 26 197 1z m540 -21 l0 -40 -70 0 -70 0 0
-230 0 -230 -45 0 -45 0 0 230 0 230 -70 0 -70 0 0 40 0 40 185 0 185 0 0 -40z
m373 16 c50 -24 79 -68 85 -126 6 -64 -25 -124 -76 -148 -20 -9 -39 -17 -41
-19 -3 -1 72 -129 117 -200 14 -23 14 -23 -39 -23 l-54 0 -63 110 c-58 100
-66 110 -92 110 l-29 0 -3 -107 -3 -108 -42 -3 -43 -3 0 272 0 271 123 -4 c90
-3 132 -9 160 -22z m495 -13 l-3 -38 -102 -3 -103 -3 0 -74 0 -75 95 0 95 0 0
-35 0 -35 -95 0 -95 0 0 -85 0 -85 105 0 105 0 0 -35 0 -35 -150 0 -150 0 0
263 c0 145 3 267 7 270 3 4 71 7 150 7 l144 0 -3 -37z m425 -120 c31 -87 74
-209 96 -271 l41 -113 -48 3 c-47 3 -47 3 -66 56 l-19 52 -112 0 -112 0 -18
-55 -19 -55 -43 0 c-24 0 -43 4 -43 10 0 10 152 440 176 498 12 30 16 32 62
32 l49 0 56 -157z m314 145 c5 -7 49 -102 98 -211 l88 -197 93 207 93 208 45
3 46 3 0 -270 0 -271 -40 0 -40 0 0 177 c0 111 -4 173 -9 168 -6 -6 -43 -84
-83 -175 -71 -158 -75 -165 -104 -168 l-31 -3 -79 177 -79 178 -3 -177 -2
-177 -45 0 -45 0 0 270 0 270 44 0 c24 0 48 -6 53 -12z m671 -260 l2 -268 -45
0 -45 0 0 271 0 270 43 -3 42 -3 3 -267z m330 75 l132 -198 0 198 0 197 45 0
45 0 0 -270 0 -270 -44 0 -44 0 -129 196 -128 196 -3 -196 -2 -196 -45 0 -45
0 0 270 0 270 43 0 44 0 131 -197z m673 185 c49 -16 96 -50 125 -89 36 -49 32
-59 -25 -59 -41 0 -51 4 -66 26 -36 56 -148 72 -220 31 -53 -30 -85 -92 -85
-167 0 -115 69 -189 178 -190 80 0 142 41 162 108 l9 32 -100 0 -99 0 0 40 0
40 145 0 145 0 0 -52 c-1 -138 -115 -248 -255 -248 -155 0 -262 94 -273 240
-6 89 2 127 39 183 30 46 76 82 134 104 40 15 143 16 186 1z m843 -22 c42 -24
106 -95 106 -118 0 -4 -22 -8 -50 -8 -44 0 -53 4 -82 36 -84 91 -249 49 -286
-73 -37 -123 19 -239 125 -261 69 -15 120 -1 161 42 29 32 38 36 82 36 28 0
50 -4 50 -8 0 -22 -64 -93 -106 -118 -35 -21 -63 -28 -120 -32 -120 -8 -202
36 -262 137 -24 40 -27 56 -27 131 0 96 18 140 77 197 58 56 112 74 204 70 66
-3 89 -8 128 -31z m296 -81 l0 -115 125 0 125 0 0 115 0 115 45 0 45 0 0 -270
0 -270 -45 0 -45 0 0 120 0 120 -125 0 -125 0 0 -120 0 -120 -45 0 -45 0 0
263 c0 145 3 267 7 270 3 4 24 7 45 7 l38 0 0 -115z m719 98 c13 -27 181 -499
181 -512 0 -6 -18 -11 -43 -11 l-43 0 -19 55 -18 55 -112 0 -112 0 -19 -52
c-19 -53 -19 -53 -67 -56 l-47 -3 29 78 c15 43 59 165 97 271 l68 192 48 0
c35 0 50 -5 57 -17z m487 -180 l129 -198 3 198 2 197 45 0 45 0 0 -270 0 -270
-44 0 -44 0 -131 198 -131 197 0 -197 0 -198 -45 0 -45 0 0 270 0 270 44 0 43
0 129 -197z m554 0 l130 -197 2 195 3 194 43 3 42 3 0 -270 0 -271 -42 0 -43
0 -130 197 -130 196 -3 -196 -2 -197 -45 0 -45 0 0 263 c0 145 3 267 7 270 3
4 24 7 45 7 l39 0 129 -197z m630 157 l0 -40 -100 0 -100 0 0 -75 0 -75 90 0
90 0 0 -35 0 -35 -90 0 -90 0 0 -85 0 -85 100 0 100 0 0 -35 0 -35 -145 0
-145 0 0 270 0 270 145 0 145 0 0 -40z m198 -197 l2 -233 90 0 90 0 0 -35 0
-35 -135 0 -135 0 0 271 0 270 43 -3 42 -3 3 -232z"/>
<path d="M7532 12979 c-142 -18 -314 -83 -439 -166 -75 -49 -201 -170 -260
-247 -58 -78 -124 -209 -156 -311 -182 -584 194 -1205 801 -1321 105 -20 288
-18 397 5 287 60 538 241 689 498 116 198 162 462 121 696 -94 539 -608 917
-1153 846z m301 -673 c156 -75 250 -254 219 -418 -51 -276 -361 -415 -594
-266 -210 133 -244 422 -70 601 84 87 163 118 292 114 79 -3 104 -8 153 -31z"/>
<path d="M7613 12059 c-77 -38 -93 -125 -34 -191 22 -24 37 -32 78 -35 47 -5
54 -3 87 28 108 100 -1 263 -131 198z"/>
<path d="M12300 12980 c-491 -69 -867 -474 -897 -967 -31 -513 321 -971 827
-1075 125 -26 345 -21 463 10 406 109 707 447 767 861 17 116 8 283 -23 401
-99 381 -405 674 -792 756 -89 19 -260 26 -345 14z m303 -674 c153 -73 247
-253 219 -414 -15 -87 -49 -150 -117 -218 -220 -222 -598 -99 -655 213 -21
121 19 248 106 337 85 86 166 117 294 113 80 -3 104 -8 153 -31z"/>
<path d="M12384 12061 c-70 -32 -93 -110 -51 -172 28 -41 60 -59 111 -59 30 0
45 7 71 33 41 41 51 77 36 127 -21 71 -97 103 -167 71z"/>
<path d="M5286 7768 c-13 -19 -16 -60 -16 -245 l0 -223 370 0 370 0 0 229 c0
195 -2 232 -16 245 -13 14 -60 16 -354 16 -339 0 -339 0 -354 -22z"/>
<path d="M5792 5858 c-111 -24 -164 -164 -108 -283 26 -57 54 -79 119 -95 84
-22 182 29 208 107 15 45 14 128 -1 168 -31 83 -121 125 -218 103z"/>
<path d="M8530 5775 l0 -85 70 0 c62 0 74 3 95 25 17 16 25 35 25 60 0 25 -8
44 -25 60 -21 22 -33 25 -95 25 l-70 0 0 -85z"/>
<path d="M9495 5713 c-21 -59 -40 -114 -42 -120 -4 -10 16 -13 81 -13 47 0 86
1 86 3 0 9 -70 208 -77 222 -8 13 -19 -9 -48 -92z"/>
<path d="M13420 5788 c-19 -52 -70 -201 -70 -205 0 -2 38 -3 85 -3 47 0 85 2
85 4 0 7 -81 230 -84 234 -2 2 -9 -12 -16 -30z"/>
</g>
</svg>
